<svg xmlns="http://www.w3.org/2000/svg" viewBox="0 0 848 848"><defs><style>.a{fill:#ff0303;}.b{fill:#dbc8c8;}</style></defs><path class="a" d="M936,965.5a422.15,422.15,0,1,1,164.85-33.28A421,421,0,0,1,936,965.5Z" transform="translate(-512 -118)"/><path d="M936,119a423.11,423.11,0,0,1,164.65,812.76,423.11,423.11,0,0,1-329.3-779.52A420.28,420.28,0,0,1,936,119m0-1c-234.17,0-424,189.83-424,424S701.83,966,936,966s424-189.83,424-424S1170.17,118,936,118Z" transform="translate(-512 -118)"/><circle class="b" cx="423.5" cy="423.5" r="165"/><path d="M935.5,377a164.5,164.5,0,1,1-116.32,48.18A163.42,163.42,0,0,1,935.5,377m0-1A165.5,165.5,0,1,0,1101,541.5,165.5,165.5,0,0,0,935.5,376Z" transform="translate(-512 -118)"/></svg>