<?xml version="1.0" encoding="utf-8"?>
<!-- Generator: Adobe Illustrator 25.2.1, SVG Export Plug-In . SVG Version: 6.00 Build 0)  -->
<svg version="1.1" id="Слой_1" xmlns="http://www.w3.org/2000/svg" xmlns:xlink="http://www.w3.org/1999/xlink" x="0px" y="0px"
	 viewBox="0 0 1920 1080" style="enable-background:new 0 0 1920 1080;" xml:space="preserve">
<style type="text/css">
	.st0{fill:#FF0303;}
	.st1{fill:#DBC8C8;}
</style>
<g>
	<path class="st0" d="M936,965.5c-57.17,0-112.63-11.2-164.85-33.28c-50.43-21.33-95.72-51.87-134.61-90.76
		s-69.43-84.18-90.76-134.61C523.7,654.63,512.5,599.17,512.5,542c0-57.17,11.2-112.63,33.28-164.85
		c21.33-50.43,51.87-95.72,90.76-134.61s84.18-69.43,134.61-90.76C823.37,129.7,878.83,118.5,936,118.5
		c57.17,0,112.63,11.2,164.85,33.28c50.43,21.33,95.72,51.87,134.61,90.76s69.43,84.18,90.76,134.61
		c22.08,52.21,33.28,107.67,33.28,164.85c0,57.17-11.2,112.63-33.28,164.85c-21.33,50.43-51.87,95.72-90.76,134.61
		s-84.18,69.43-134.61,90.76C1048.63,954.3,993.17,965.5,936,965.5z"/>
	<path d="M936,119c57.11,0,112.5,11.18,164.65,33.24c50.37,21.3,95.61,51.8,134.46,90.65s69.35,84.09,90.65,134.46
		C1347.82,429.5,1359,484.89,1359,542s-11.18,112.5-33.24,164.65c-21.3,50.37-51.81,95.61-90.65,134.46
		c-38.85,38.85-84.09,69.35-134.46,90.65C1048.5,953.82,993.11,965,936,965s-112.5-11.18-164.65-33.24
		c-50.37-21.3-95.61-51.8-134.46-90.65c-38.85-38.85-69.35-84.09-90.65-134.46C524.18,654.5,513,599.11,513,542
		s11.18-112.5,33.24-164.65c21.3-50.37,51.8-95.61,90.65-134.46c38.85-38.85,84.09-69.35,134.46-90.65
		C823.5,130.18,878.89,119,936,119 M936,118c-234.17,0-424,189.83-424,424s189.83,424,424,424s424-189.83,424-424
		S1170.17,118,936,118L936,118z"/>
</g>
<g>
	<circle class="st1" cx="935.5" cy="541.5" r="165"/>
	<path d="M935.5,377c43.94,0,85.25,17.11,116.32,48.18c31.07,31.07,48.18,72.38,48.18,116.32s-17.11,85.25-48.18,116.32
		C1020.75,688.89,979.44,706,935.5,706s-85.25-17.11-116.32-48.18C788.11,626.75,771,585.44,771,541.5s17.11-85.25,48.18-116.32
		C850.25,394.11,891.56,377,935.5,377 M935.5,376C844.1,376,770,450.1,770,541.5S844.1,707,935.5,707S1101,632.9,1101,541.5
		S1026.9,376,935.5,376L935.5,376z"/>
</g>
</svg>
